<mxfile host="Electron" modified="2024-10-24T22:21:18.236Z" agent="Mozilla/5.0 (Windows NT 10.0; Win64; x64) AppleWebKit/537.36 (KHTML, like Gecko) draw.io/22.1.2 Chrome/114.0.5735.289 Electron/25.9.4 Safari/537.36" etag="Z58RAPWkWKni2CNplasM" version="22.1.2" type="device">
  <diagram name="Page-1" id="58cdce13-f638-feb5-8d6f-7d28b1aa9fa0">
    <mxGraphModel dx="1508" dy="1728" grid="1" gridSize="10" guides="1" tooltips="1" connect="1" arrows="1" fold="1" page="1" pageScale="1" pageWidth="1100" pageHeight="850" background="none" math="0" shadow="0">
      <root>
        <mxCell id="0" />
        <mxCell id="1" parent="0" />
        <mxCell id="sZcx_ukak52XP6bxzXwW-17" style="edgeStyle=orthogonalEdgeStyle;rounded=0;orthogonalLoop=1;jettySize=auto;html=1;entryX=0;entryY=0.5;entryDx=0;entryDy=0;" parent="1" source="382b91b5511bd0f7-1" target="sZcx_ukak52XP6bxzXwW-1" edge="1">
          <mxGeometry relative="1" as="geometry" />
        </mxCell>
        <mxCell id="sZcx_ukak52XP6bxzXwW-18" value="started" style="edgeLabel;html=1;align=center;verticalAlign=middle;resizable=0;points=[];" parent="sZcx_ukak52XP6bxzXwW-17" vertex="1" connectable="0">
          <mxGeometry x="-0.6583" y="-2" relative="1" as="geometry">
            <mxPoint x="16" y="-12" as="offset" />
          </mxGeometry>
        </mxCell>
        <mxCell id="382b91b5511bd0f7-1" value="" style="ellipse;html=1;shape=startState;rounded=1;shadow=0;comic=0;labelBackgroundColor=none;fontFamily=Verdana;fontSize=12;align=center;direction=south;" parent="1" vertex="1">
          <mxGeometry x="130" y="135" width="30" height="30" as="geometry" />
        </mxCell>
        <mxCell id="2a3bc250acf0617d-8" value="State" style="shape=umlFrame;whiteSpace=wrap;html=1;rounded=1;shadow=0;comic=0;labelBackgroundColor=none;strokeWidth=1;fontFamily=Verdana;fontSize=12;align=center;" parent="1" vertex="1">
          <mxGeometry x="120" y="-80" width="1610" height="470" as="geometry" />
        </mxCell>
        <mxCell id="sZcx_ukak52XP6bxzXwW-19" style="edgeStyle=orthogonalEdgeStyle;rounded=0;orthogonalLoop=1;jettySize=auto;html=1;entryX=0;entryY=0.5;entryDx=0;entryDy=0;" parent="1" source="sZcx_ukak52XP6bxzXwW-1" target="sZcx_ukak52XP6bxzXwW-2" edge="1">
          <mxGeometry relative="1" as="geometry" />
        </mxCell>
        <mxCell id="sZcx_ukak52XP6bxzXwW-20" value="Received Request" style="edgeLabel;html=1;align=center;verticalAlign=middle;resizable=0;points=[];" parent="sZcx_ukak52XP6bxzXwW-19" vertex="1" connectable="0">
          <mxGeometry x="0.1957" y="-1" relative="1" as="geometry">
            <mxPoint x="-16" y="-16" as="offset" />
          </mxGeometry>
        </mxCell>
        <mxCell id="sZcx_ukak52XP6bxzXwW-1" value="Pending requests" style="swimlane;fontStyle=4;align=center;verticalAlign=top;childLayout=stackLayout;horizontal=1;startSize=41;horizontalStack=0;resizeParent=1;resizeParentMax=0;resizeLast=0;collapsible=0;marginBottom=0;html=1;rounded=1;absoluteArcSize=1;arcSize=140;whiteSpace=wrap;" parent="1" vertex="1">
          <mxGeometry x="240" y="116" width="140" height="68" as="geometry" />
        </mxCell>
        <mxCell id="sZcx_ukak52XP6bxzXwW-37" style="edgeStyle=orthogonalEdgeStyle;rounded=0;orthogonalLoop=1;jettySize=auto;html=1;exitX=0;exitY=0.75;exitDx=0;exitDy=0;entryX=0.5;entryY=1;entryDx=0;entryDy=0;" parent="1" source="sZcx_ukak52XP6bxzXwW-2" target="sZcx_ukak52XP6bxzXwW-1" edge="1">
          <mxGeometry relative="1" as="geometry">
            <Array as="points">
              <mxPoint x="310" y="255" />
            </Array>
          </mxGeometry>
        </mxCell>
        <mxCell id="sZcx_ukak52XP6bxzXwW-38" style="edgeStyle=orthogonalEdgeStyle;rounded=0;orthogonalLoop=1;jettySize=auto;html=1;entryX=0.5;entryY=1;entryDx=0;entryDy=0;exitX=0.5;exitY=0;exitDx=0;exitDy=0;" parent="1" source="sZcx_ukak52XP6bxzXwW-1" target="sZcx_ukak52XP6bxzXwW-39" edge="1">
          <mxGeometry relative="1" as="geometry">
            <mxPoint x="945" y="430" as="targetPoint" />
          </mxGeometry>
        </mxCell>
        <mxCell id="sZcx_ukak52XP6bxzXwW-40" value="stopped" style="edgeLabel;html=1;align=center;verticalAlign=middle;resizable=0;points=[];" parent="sZcx_ukak52XP6bxzXwW-38" vertex="1" connectable="0">
          <mxGeometry x="0.1995" y="-1" relative="1" as="geometry">
            <mxPoint x="-1" y="-2" as="offset" />
          </mxGeometry>
        </mxCell>
        <mxCell id="sZcx_ukak52XP6bxzXwW-2" value="Processing request" style="swimlane;fontStyle=4;align=center;verticalAlign=top;childLayout=stackLayout;horizontal=1;startSize=41;horizontalStack=0;resizeParent=1;resizeParentMax=0;resizeLast=0;collapsible=0;marginBottom=0;html=1;rounded=1;absoluteArcSize=1;arcSize=140;whiteSpace=wrap;" parent="1" vertex="1">
          <mxGeometry x="490" y="-60" width="1030" height="420" as="geometry" />
        </mxCell>
        <mxCell id="sZcx_ukak52XP6bxzXwW-11" style="edgeStyle=orthogonalEdgeStyle;rounded=0;orthogonalLoop=1;jettySize=auto;html=1;entryX=1;entryY=0.5;entryDx=0;entryDy=0;" parent="1" source="sZcx_ukak52XP6bxzXwW-27" target="sZcx_ukak52XP6bxzXwW-7" edge="1">
          <mxGeometry relative="1" as="geometry" />
        </mxCell>
        <mxCell id="sZcx_ukak52XP6bxzXwW-4" value="Pending validation" style="swimlane;fontStyle=4;align=center;verticalAlign=top;childLayout=stackLayout;horizontal=1;startSize=41;horizontalStack=0;resizeParent=1;resizeParentMax=0;resizeLast=0;collapsible=0;marginBottom=0;html=1;rounded=1;absoluteArcSize=1;arcSize=162;whiteSpace=wrap;" parent="1" vertex="1">
          <mxGeometry x="625" y="7" width="170" height="68" as="geometry" />
        </mxCell>
        <mxCell id="sZcx_ukak52XP6bxzXwW-10" style="edgeStyle=orthogonalEdgeStyle;rounded=0;orthogonalLoop=1;jettySize=auto;html=1;entryX=0;entryY=0.5;entryDx=0;entryDy=0;" parent="1" source="sZcx_ukak52XP6bxzXwW-6" target="sZcx_ukak52XP6bxzXwW-4" edge="1">
          <mxGeometry relative="1" as="geometry">
            <mxPoint x="640" y="41" as="targetPoint" />
          </mxGeometry>
        </mxCell>
        <mxCell id="sZcx_ukak52XP6bxzXwW-6" value="" style="ellipse;html=1;shape=startState;rounded=1;shadow=0;comic=0;labelBackgroundColor=none;fontFamily=Verdana;fontSize=12;align=center;direction=south;" parent="1" vertex="1">
          <mxGeometry x="540" y="26" width="30" height="30" as="geometry" />
        </mxCell>
        <mxCell id="sZcx_ukak52XP6bxzXwW-7" value="" style="ellipse;html=1;shape=endState;rounded=1;shadow=0;comic=0;labelBackgroundColor=none;fontFamily=Verdana;fontSize=12;align=center;" parent="1" vertex="1">
          <mxGeometry x="535" y="279" width="30" height="30" as="geometry" />
        </mxCell>
        <mxCell id="sZcx_ukak52XP6bxzXwW-14" value="" style="edgeStyle=orthogonalEdgeStyle;rounded=0;orthogonalLoop=1;jettySize=auto;html=1;entryX=0.488;entryY=-0.051;entryDx=0;entryDy=0;entryPerimeter=0;" parent="1" source="sZcx_ukak52XP6bxzXwW-24" target="sZcx_ukak52XP6bxzXwW-13" edge="1">
          <mxGeometry relative="1" as="geometry">
            <mxPoint x="1120" y="41" as="sourcePoint" />
            <mxPoint x="1420" y="41" as="targetPoint" />
          </mxGeometry>
        </mxCell>
        <mxCell id="sZcx_ukak52XP6bxzXwW-31" value="Cached response does not exists" style="edgeLabel;html=1;align=center;verticalAlign=middle;resizable=0;points=[];" parent="sZcx_ukak52XP6bxzXwW-14" vertex="1" connectable="0">
          <mxGeometry x="-0.5763" y="1" relative="1" as="geometry">
            <mxPoint as="offset" />
          </mxGeometry>
        </mxCell>
        <mxCell id="sZcx_ukak52XP6bxzXwW-13" value="Routing Request" style="swimlane;fontStyle=4;align=center;verticalAlign=top;childLayout=stackLayout;horizontal=1;startSize=41;horizontalStack=0;resizeParent=1;resizeParentMax=0;resizeLast=0;collapsible=0;marginBottom=0;html=1;rounded=1;absoluteArcSize=1;arcSize=140;whiteSpace=wrap;" parent="1" vertex="1">
          <mxGeometry x="1270" y="260" width="170" height="68" as="geometry" />
        </mxCell>
        <mxCell id="sZcx_ukak52XP6bxzXwW-16" value="" style="edgeStyle=orthogonalEdgeStyle;rounded=0;orthogonalLoop=1;jettySize=auto;html=1;entryX=1;entryY=0.5;entryDx=0;entryDy=0;" parent="1" source="sZcx_ukak52XP6bxzXwW-13" target="sZcx_ukak52XP6bxzXwW-15" edge="1">
          <mxGeometry relative="1" as="geometry">
            <mxPoint x="1360" y="41" as="sourcePoint" />
            <mxPoint x="1570" y="41" as="targetPoint" />
          </mxGeometry>
        </mxCell>
        <mxCell id="sZcx_ukak52XP6bxzXwW-15" value="Request Response Caching" style="swimlane;fontStyle=4;align=center;verticalAlign=top;childLayout=stackLayout;horizontal=1;startSize=41;horizontalStack=0;resizeParent=1;resizeParentMax=0;resizeLast=0;collapsible=0;marginBottom=0;html=1;rounded=1;absoluteArcSize=1;arcSize=140;whiteSpace=wrap;" parent="1" vertex="1">
          <mxGeometry x="1010" y="260" width="170" height="68" as="geometry" />
        </mxCell>
        <mxCell id="sZcx_ukak52XP6bxzXwW-23" value="" style="edgeStyle=orthogonalEdgeStyle;rounded=0;orthogonalLoop=1;jettySize=auto;html=1;entryX=0.5;entryY=0;entryDx=0;entryDy=0;exitX=1;exitY=0.5;exitDx=0;exitDy=0;" parent="1" source="sZcx_ukak52XP6bxzXwW-25" target="sZcx_ukak52XP6bxzXwW-24" edge="1">
          <mxGeometry relative="1" as="geometry">
            <mxPoint x="905" y="41" as="sourcePoint" />
            <mxPoint x="1033" y="123" as="targetPoint" />
          </mxGeometry>
        </mxCell>
        <mxCell id="sZcx_ukak52XP6bxzXwW-29" style="edgeStyle=orthogonalEdgeStyle;rounded=0;orthogonalLoop=1;jettySize=auto;html=1;entryX=0.5;entryY=0;entryDx=0;entryDy=0;" parent="1" source="sZcx_ukak52XP6bxzXwW-24" target="sZcx_ukak52XP6bxzXwW-27" edge="1">
          <mxGeometry relative="1" as="geometry" />
        </mxCell>
        <mxCell id="sZcx_ukak52XP6bxzXwW-30" value="Cached response exists" style="edgeLabel;html=1;align=center;verticalAlign=middle;resizable=0;points=[];" parent="sZcx_ukak52XP6bxzXwW-29" vertex="1" connectable="0">
          <mxGeometry x="-0.4499" y="-2" relative="1" as="geometry">
            <mxPoint x="5" y="-8" as="offset" />
          </mxGeometry>
        </mxCell>
        <mxCell id="sZcx_ukak52XP6bxzXwW-24" value="" style="rhombus;whiteSpace=wrap;html=1;" parent="1" vertex="1">
          <mxGeometry x="1310" y="100" width="80" height="80" as="geometry" />
        </mxCell>
        <mxCell id="sZcx_ukak52XP6bxzXwW-26" value="" style="edgeStyle=orthogonalEdgeStyle;rounded=0;orthogonalLoop=1;jettySize=auto;html=1;entryX=0;entryY=0.5;entryDx=0;entryDy=0;exitX=1;exitY=0.5;exitDx=0;exitDy=0;" parent="1" source="sZcx_ukak52XP6bxzXwW-32" target="sZcx_ukak52XP6bxzXwW-25" edge="1">
          <mxGeometry relative="1" as="geometry">
            <mxPoint x="1030" y="41" as="sourcePoint" />
            <mxPoint x="1220" y="80" as="targetPoint" />
          </mxGeometry>
        </mxCell>
        <mxCell id="sZcx_ukak52XP6bxzXwW-36" value="valid" style="edgeLabel;html=1;align=center;verticalAlign=middle;resizable=0;points=[];" parent="sZcx_ukak52XP6bxzXwW-26" vertex="1" connectable="0">
          <mxGeometry x="-0.2258" y="2" relative="1" as="geometry">
            <mxPoint y="-7" as="offset" />
          </mxGeometry>
        </mxCell>
        <mxCell id="sZcx_ukak52XP6bxzXwW-25" value="Pending looking for cache" style="swimlane;fontStyle=4;align=center;verticalAlign=top;childLayout=stackLayout;horizontal=1;startSize=41;horizontalStack=0;resizeParent=1;resizeParentMax=0;resizeLast=0;collapsible=0;marginBottom=0;html=1;rounded=1;absoluteArcSize=1;arcSize=144;whiteSpace=wrap;" parent="1" vertex="1">
          <mxGeometry x="1160" y="7" width="170" height="68" as="geometry" />
        </mxCell>
        <mxCell id="sZcx_ukak52XP6bxzXwW-28" value="" style="edgeStyle=orthogonalEdgeStyle;rounded=0;orthogonalLoop=1;jettySize=auto;html=1;entryX=1;entryY=0.5;entryDx=0;entryDy=0;" parent="1" source="sZcx_ukak52XP6bxzXwW-15" target="sZcx_ukak52XP6bxzXwW-27" edge="1">
          <mxGeometry relative="1" as="geometry">
            <mxPoint x="1200" y="194" as="sourcePoint" />
            <mxPoint x="1020" y="294" as="targetPoint" />
          </mxGeometry>
        </mxCell>
        <mxCell id="sZcx_ukak52XP6bxzXwW-27" value="Returning the response" style="swimlane;fontStyle=4;align=center;verticalAlign=top;childLayout=stackLayout;horizontal=1;startSize=41;horizontalStack=0;resizeParent=1;resizeParentMax=0;resizeLast=0;collapsible=0;marginBottom=0;html=1;rounded=1;absoluteArcSize=1;arcSize=140;whiteSpace=wrap;" parent="1" vertex="1">
          <mxGeometry x="670" y="260" width="170" height="68" as="geometry" />
        </mxCell>
        <mxCell id="sZcx_ukak52XP6bxzXwW-33" value="" style="edgeStyle=orthogonalEdgeStyle;rounded=0;orthogonalLoop=1;jettySize=auto;html=1;entryX=0;entryY=0.5;entryDx=0;entryDy=0;" parent="1" source="whGW8iIkcy6xzxkwmGIU-1" target="sZcx_ukak52XP6bxzXwW-32" edge="1">
          <mxGeometry relative="1" as="geometry">
            <mxPoint x="795" y="41" as="sourcePoint" />
            <mxPoint x="1030" y="41" as="targetPoint" />
          </mxGeometry>
        </mxCell>
        <mxCell id="sZcx_ukak52XP6bxzXwW-34" style="edgeStyle=orthogonalEdgeStyle;rounded=0;orthogonalLoop=1;jettySize=auto;html=1;entryX=0.25;entryY=0;entryDx=0;entryDy=0;" parent="1" source="sZcx_ukak52XP6bxzXwW-32" target="sZcx_ukak52XP6bxzXwW-27" edge="1">
          <mxGeometry relative="1" as="geometry">
            <Array as="points">
              <mxPoint x="1060" y="110" />
              <mxPoint x="712" y="110" />
            </Array>
          </mxGeometry>
        </mxCell>
        <mxCell id="sZcx_ukak52XP6bxzXwW-35" value="not valid" style="edgeLabel;html=1;align=center;verticalAlign=middle;resizable=0;points=[];" parent="sZcx_ukak52XP6bxzXwW-34" vertex="1" connectable="0">
          <mxGeometry x="-0.1786" y="-2" relative="1" as="geometry">
            <mxPoint x="13" y="-8" as="offset" />
          </mxGeometry>
        </mxCell>
        <mxCell id="sZcx_ukak52XP6bxzXwW-32" value="" style="rhombus;whiteSpace=wrap;html=1;" parent="1" vertex="1">
          <mxGeometry x="1020" y="1" width="80" height="80" as="geometry" />
        </mxCell>
        <mxCell id="sZcx_ukak52XP6bxzXwW-39" value="" style="ellipse;html=1;shape=endState;rounded=1;shadow=0;comic=0;labelBackgroundColor=none;fontFamily=Verdana;fontSize=12;align=center;" parent="1" vertex="1">
          <mxGeometry x="295" y="-20" width="30" height="30" as="geometry" />
        </mxCell>
        <mxCell id="whGW8iIkcy6xzxkwmGIU-2" value="" style="edgeStyle=orthogonalEdgeStyle;rounded=0;orthogonalLoop=1;jettySize=auto;html=1;entryX=0;entryY=0.5;entryDx=0;entryDy=0;" parent="1" source="sZcx_ukak52XP6bxzXwW-4" target="whGW8iIkcy6xzxkwmGIU-1" edge="1">
          <mxGeometry relative="1" as="geometry">
            <mxPoint x="795" y="41" as="sourcePoint" />
            <mxPoint x="1020" y="41" as="targetPoint" />
          </mxGeometry>
        </mxCell>
        <mxCell id="whGW8iIkcy6xzxkwmGIU-1" value="Pending saving schema" style="swimlane;fontStyle=4;align=center;verticalAlign=top;childLayout=stackLayout;horizontal=1;startSize=41;horizontalStack=0;resizeParent=1;resizeParentMax=0;resizeLast=0;collapsible=0;marginBottom=0;html=1;rounded=1;absoluteArcSize=1;arcSize=170;whiteSpace=wrap;" parent="1" vertex="1">
          <mxGeometry x="820" y="7" width="170" height="68" as="geometry" />
        </mxCell>
      </root>
    </mxGraphModel>
  </diagram>
</mxfile>
